<svg xmlns="http://www.w3.org/2000/svg" width="600" height="782.589" viewBox="0 0 600 782.589"><path d="M122.17 615.214c5.487 4.05 11.105 7.905 16.854 11.629C185.54 656.438 240.744 673.62 300 673.62s114.46-17.182 160.976-46.777c7.513-4.834 14.83-9.93 21.82-15.353-241.267-83.1-333.384-23.584-360.627 3.724zM37.238 518.46c118.053-125.11 101.132-116.681 108.188-182.47 5.684-53.114-40.505-131.707-64.025-167.77-6.925 7.317-13.393 14.961-19.534 22.931C23.062 241.717 0 304.957 0 373.62c0 36.52 6.533 71.472 18.488 103.876 5.227 14.177 11.499 27.897 18.75 40.963zm9.316-358.58L35.46 149.327 20.094 135.81l35.342 14.731 3.981-4.185-16.48-34.605 14.289 14.693 11.094 10.552 5.541-5.825-33.65-32.011-7.191 7.557 16.582 34.222-35.03-14.83-7.21 7.583 33.652 32.011 5.541-5.825zm12.307-47.537l1.637 2.042c2.8 3.451 5.892 6 9.273 7.65 3.381 1.645 6.798 2.267 10.246 1.856 3.449-.409 6.642-1.793 9.577-4.15 2.966-2.383 5.014-5.207 6.143-8.473 1.13-3.263 1.232-6.728.31-10.393-.925-3.662-2.81-7.27-5.66-10.817l-1.617-2.016c-2.855-3.519-5.971-6.11-9.353-7.771-3.378-1.662-6.778-2.287-10.198-1.876-3.416.415-6.603 1.806-9.554 4.176-2.95 2.37-4.992 5.187-6.122 8.453-1.126 3.264-1.23 6.75-.312 10.46.915 3.707 2.794 7.328 5.63 10.859zm4.999-24.55c2.785-2.236 5.796-2.894 9.03-1.975 3.235.922 6.464 3.388 9.686 7.4l1.518 1.893c3.276 4.08 5.015 7.783 5.219 11.11.204 3.328-1.088 6.11-3.873 8.345-2.753 2.211-5.777 2.852-9.072 1.927-3.295-.928-6.54-3.381-9.736-7.362l-1.678-2.09c-3.094-3.924-4.73-7.566-4.91-10.929-.175-3.362 1.095-6.134 3.816-8.32zm47.307 15.079L93.655 74.955l35.052 16.914 6.836-4.291-24.684-39.342-6.782 4.255 17.58 28.021-35.173-16.987-6.836 4.291 24.684 39.342 6.836-4.287zm17.772-56.39l17.548 35.878 7.193-3.518-17.55-35.878 13.011-6.364-2.861-5.844-33.096 16.189 2.86 5.847 12.895-6.31zm36.784 26.697l-.329-11.445 16.815-6.4 7.394 8.757 7.873-2.995-32.95-37.157-6.769 2.577.125 49.65 7.84-2.987zm12.055-23.12l-12.582 4.788-.561-20.4 13.143 15.611zm19.704 7.71c3.748 1.945 8.192 2.236 13.331.874 5.079-1.347 8.776-3.816 11.089-7.41 2.316-3.593 2.842-7.775 1.579-12.544l-7.95-30.005-7.77 2.058 7.879 29.743c1.674 6.323-.492 10.278-6.492 11.867-2.96.785-5.41.587-7.35-.59-1.942-1.177-3.308-3.264-4.102-6.262l-7.943-29.986-7.77 2.057 7.939 29.974c1.289 4.874 3.809 8.28 7.56 10.224zm47.678-6.951c5.148-.81 8.922-2.588 11.321-5.334 2.396-2.747 3.257-6.272 2.58-10.578-.41-2.606-1.438-4.73-3.087-6.377-1.646-1.646-3.764-2.61-6.348-2.893 2.038-1.267 3.493-2.83 4.364-4.69.87-1.86 1.139-3.84.807-5.94-.648-4.118-2.488-7.001-5.528-8.657-3.037-1.652-7.15-2.07-12.34-1.254L221.208 7.57l7.222 45.882 16.732-2.635zm5.956-14.694c.344 2.195-.09 4.023-1.302 5.478-1.215 1.454-3.072 2.38-5.57 2.772l-8.855 1.394-2.246-14.275 9.516-1.497c4.89-.663 7.71 1.379 8.457 6.128zm-13.175-24.6c2.73-.431 4.823-.243 6.275.564 1.451.804 2.354 2.341 2.711 4.61.322 2.057-.124 3.76-1.343 5.103-1.222 1.343-3.072 2.211-5.55 2.6l-7.816 1.232-2.029-12.888 7.752-1.222zm27.877 36.521L269 37.045l17.967-.96 4.37 10.594 5.844-.312v.01l8.058.443 1.805-32.902 18.866 34.04 8.058.44 2.552-46.376-7.994-.437-1.818 33.03L307.784.443 299.729 0l-2.257 41.073L279.712.788l-7.232.386-15.038 47.317 8.377-.447zm10.789-37.217l7.748 18.878-13.442.721 5.694-19.6zm75.823 23.686l.83-6.199-16.602-2.226-.829 6.198 16.6 2.227zm5.25 17.471l3.465-14.913 3.847-20.1 5.244 37.929 5.627 1.304 21.45-31.765-5.404 19.771-3.464 14.913 7.828 1.819 10.501-45.244-10.157-2.357-21.073 31.657-5.002-37.709-10.188-2.364-10.502 45.244 7.828 1.815zm46.16-11.14c-1.538 4.17-2.157 8.132-1.844 11.88.312 3.752 1.525 7.002 3.643 9.758 2.112 2.753 4.932 4.792 8.453 6.112 3.567 1.334 7.044 1.65 10.425.954 3.382-.698 6.412-2.38 9.092-5.046 2.68-2.664 4.817-6.128 6.412-10.39l.905-2.421c1.564-4.25 2.202-8.253 1.902-12.01-.294-3.755-1.5-6.996-3.599-9.724-2.099-2.727-4.925-4.756-8.472-6.083-3.541-1.327-7.005-1.64-10.393-.941-3.382.698-6.431 2.39-9.15 5.072s-4.873 6.147-6.462 10.39l-.912 2.45zm7.643 2.59l.944-2.51c1.786-4.667 4.083-7.933 6.884-9.802 2.8-1.87 5.831-2.195 9.104-.973 3.343 1.253 5.449 3.502 6.31 6.756.861 3.25.39 7.286-1.416 12.106l-.849 2.271c-1.83 4.9-4.128 8.288-6.884 10.164-2.756 1.872-5.812 2.185-9.155.931-3.305-1.234-5.404-3.506-6.29-6.814-.888-3.305-.435-7.35 1.352-12.128zm28.888 35.582l19.447-42.181-7.3-3.366-19.445 42.182 7.298 3.365zm18.72-17.427c1.282 2.271 3.298 4.795 6.047 7.573 2.75 2.779 4.492 4.999 5.226 6.655.727 1.658.606 3.38-.364 5.177-.9 1.643-2.24 2.628-4.02 2.95-1.786.326-3.917-.184-6.38-1.524-2.858-1.554-4.708-3.385-5.55-5.487s-.632-4.313.625-6.632l-7.088-3.853c-1.39 2.558-1.927 5.174-1.595 7.847.326 2.67 1.43 5.225 3.311 7.662 1.882 2.44 4.294 4.463 7.248 6.068 4.466 2.427 8.55 3.346 12.243 2.756a10.922 10.922 0 0 0 5.832-2.84c-.084.636-.278 1.255-.262 1.908.07 2.69.919 5.34 2.558 7.95 1.634 2.61 3.841 4.855 6.623 6.74 4.21 2.849 8.185 4.157 11.924 3.927.772-.047 1.488-.198 2.193-.372l-3.788 2.123 6.425 5.398 9.838-5.86 13.774 11.573-4.051 10.722 6.45 5.416L542.727 90.6l-5.545-4.657-34.484 19.33c.582-.58 1.134-1.22 1.634-1.958 1.333-1.974 2.08-3.98 2.226-6.022.153-2.045-.293-4.246-1.34-6.61s-2.768-5.002-5.16-7.914c-2.393-2.913-3.925-5.28-4.594-7.101-.67-1.822-.524-3.433.42-4.836 1.13-1.666 2.61-2.556 4.447-2.667 1.838-.115 3.848.568 6.03 2.048 2.341 1.585 3.764 3.365 4.261 5.346.492 1.978.07 3.962-1.282 5.956l6.66 4.504c1.5-2.217 2.272-4.644 2.31-7.276.032-2.635-.663-5.155-2.092-7.56-1.43-2.403-3.477-4.511-6.157-6.323-4.032-2.73-7.994-3.95-11.88-3.65-3.885.297-6.877 1.994-8.976 5.095-2.393 3.538-2.584 7.595-.568 12.17 1.053 2.383 2.814 5.091 5.283 8.125 2.469 3.03 3.987 5.407 4.555 7.126s.28 3.426-.861 5.117c-1.053 1.55-2.482 2.399-4.288 2.549-1.812.15-3.879-.562-6.201-2.138-2.692-1.821-4.358-3.821-4.99-5.997-.637-2.175-.216-4.354 1.264-6.54l-5.54-3.751c.557-1.47.927-2.934.895-4.383-.05-2.048-.708-4.198-1.977-6.45-1.27-2.252-3.235-4.708-5.902-7.375-2.667-2.667-4.421-4.874-5.257-6.623-.842-1.748-.861-3.365-.051-4.852.963-1.767 2.348-2.797 4.166-3.087s3.88.194 6.201 1.454c2.482 1.35 4.07 2.986 4.754 4.91.689 1.92.453 3.936-.696 6.051l7.063 3.838c1.282-2.355 1.812-4.843 1.595-7.468-.224-2.626-1.155-5.063-2.814-7.318-1.652-2.255-3.898-4.157-6.737-5.7-4.281-2.326-8.339-3.152-12.18-2.482-3.84.673-6.654 2.654-8.44 5.943-2.042 3.754-1.838 7.809.612 12.166zm74.511 34.22l-7.241 19.082-10.304-8.661 17.545-10.422zm4.256 24.332c-3.044 3.002-5.2 6.176-6.476 9.52-1.27 3.343-1.57 6.635-.887 9.885.69 3.248 2.31 6.208 4.868 8.878 3.662 3.825 7.605 5.927 11.816 6.31 4.21.383 8.262-.97 12.166-4.061l-5.563-5.806c-2.692 1.99-5.104 2.9-7.235 2.734-2.13-.163-4.294-1.39-6.488-3.678-2.393-2.504-3.267-5.315-2.603-8.44.663-3.124 2.807-6.422 6.437-9.9l2.973-2.848c3.605-3.404 6.993-5.311 10.144-5.726 3.152-.418 5.946.641 8.37 3.174 2.093 2.182 3.146 4.348 3.159 6.498.013 2.15-1.053 4.52-3.196 7.107l5.563 5.803c3.317-3.886 4.893-7.918 4.734-12.093-.16-4.18-2.01-8.116-5.557-11.816-2.635-2.75-5.608-4.546-8.926-5.391-3.311-.846-6.711-.673-10.195.517-3.483 1.19-6.807 3.301-9.972 6.332l-3.132 3.001zM54.256 604.851c2.673-1.27 2.067-10.4-.849-9.021-6.396 3.018-12.485 6.648-18.138 10.884-5.452 4.096-10.859 8.639-15.086 14.017-7.652 9.723-11.123 26.056-.858 35.696 1.496 1.404 2.693-2.31 2.833-3.12.329-1.94.198-4.39-1.34-5.818-7.688-7.216-.638-17.016 4.945-22.713 8.147-8.313 17.975-14.948 28.493-19.925zm4.313 31.983c-5.876-5.053-15.654-3.72-21.692.057-6.89 4.294-9.89 12.505-8.916 20.467.957 7.829 7.244 15.746 15.85 14.655 3.19-.402 2.566-9.704-.34-9.334-4.275.543-9.456-1.78-10.996-6.118-.485-1.359-.367-2.412.185-3.981.79-2.22 2.3-4.185 4.143-5.627.042-.032.093-.058.134-.096-.076 1.818.294 3.713 1.165 4.46 5.435 4.631 12.45 10.048 19.714 6.2 7.311-3.872 6.625-15.65.753-20.683zm-2.482 11.854c-5.245 2.59-10.6-.944-14.744-4.345 3.49-1.41 7.432-1.844 11.12-1.116 1.298.249 2.558.734 3.697 1.435 1.002.606 1.512 1.41 2.22 2.24-.644.772-1.378 1.333-2.293 1.786zm120.09 70.288c-2.45 1.755-4.619 4-6.858 6.004-2.795 2.475-8.977 9.895-13.306 6.227-.516-.434-.619-.728-.66-.9-.3-1.238-.195-2.584.02-3.828.59-3.375 2.012-6.514 3.444-9.583.788-1.703.115-3.725-.775-5.289-.542-.944-2.268-3.566-3.732-2.75-8.724 4.903-14.84 13.474-17.156 23.069-.192-1.164-.64-2.341-.931-3.016-.91-2.112-.98-5.442-.364-8.134.115-.505.249-.99.405-1.462 1.534-2.13 2.906-4.389 4.195-6.647 1.094.638 2.13.07 2.341-1.449.287-2.06-.618-4.746-2.092-6.271-8.99-9.277-26.072-11.688-35.195-1.512-.533.593-.956 1.235-1.367 1.881.854-2.516-.5-8.012-3.055-7.923-6.54.242-13.21.51-19.609-1.263-5.094-1.423-11.002-4.524-13.27-9.609-1.815-4.07.711-9.327 3.225-12.81 4.007-5.558 10.224-9.303 15.934-12.895 5.404-3.42 13.27-7.95 19.612-3.63 3.407 2.329 3.037-6.699.664-8.313-6.709-4.568-14.224-2.08-20.518 1.659-6.955 4.134-14.18 8.606-19.073 15.152-4.431 5.934-6.243 13.705-4.485 21.042 1.786 7.439 6.845 13.34 13.742 16.683 7.898 3.835 17.076 3.484 25.558 3.165.3-.011.527-.17.736-.36-3.074 5.757-1.791 13.058 2.457 18.281 4.38 5.378 11.34 7.146 17.794 4.887 2.642-.925 4.922-2.316 6.945-4.032a31.819 31.819 0 0 0 2.144 7.197c.504 1.18 2.181 3.54 3.623 2.284.077-.067.073-.192.136-.27-.007 1.852.879 3.814 2.072 5.163.826.944 3.069 2.386 3.477.255a33.86 33.86 0 0 1 7.248-15.318c.019.708.076 1.416.178 2.144.795 5.397 4.431 12.179 10.215 13.691 5.697 1.493 10.409-4.338 14.103-7.624 2.21-1.978 4.36-4.409 6.925-5.927.006-.006.022-.013.032-.02-.01.09-.026.173-.035.256-1.133 7.815-2.268 15.625-3.398 23.44-.309 2.137.607 4.46 2.045 6.093.775.88 3.165 2.424 3.48.249.98-6.77 1.96-13.539 2.942-20.301.851-5.902 2.284-13.213-3.178-17.66-2.12-1.736-4.517-1.531-6.635-.026zm-44.44-6.999c-1.968 2.642-4.242 5.015-7.05 6.731-4.284 2.629-10.099 3.981-14.74 1.238-.92-.549-1.8-1.2-2.473-2.035-.028-.038-.236-.351-.37-.549.067.013-.118-.53-.13-.28-.077-2.246 1.556-4.537 3.164-6.132 3.64-3.61 9.18-5.346 14.31-5.193 3.171.096 6.336.791 9.21 2.099a22.159 22.159 0 0 0-1.92 4.121zM270.55 733.51a12.914 12.914 0 0 0-10.59 6.476c-2.393 4.14-1.774 9.48.452 13.557 1.311 2.405 3.155 4.358 5.002 6.36 1.184 1.27 2.067 2.636.989 4.358-2.817 4.492-8.572 1.187-11.64-.905-.754-.518-1.832-.812-2.58-.53.006-.01.015-.017.021-.026 4.568-6.022 4.884-14.074 5.133-21.315.07-2.086-1.675-4.32-3.305-5.512-1.1-.81-3.375-1.627-3.445.497-.207 5.985-.411 12.237-3.356 17.622-2.236 4.096-6.645 7.362-11.471 7.54-4.246.16-5.595-2.06-5.86-5.856-.412-5.908 2.794-11.516 5.512-16.556 1.394-2.571-4.896-9.334-6.485-6.386-1.77 3.268-3.484 6.637-4.577 10.146-1.104-6.967-5.633-13.69-11.79-16.8-3.028-1.532-6.234-2.163-9.488-2.278-1.228-1.149-2.587-1.653-3.404-.575-.166.217-.319.434-.481.651-2.705.192-5.41.625-8.052 1.085-2.931.517-.092 6.673 2.61 7.962-6.6 13.698-7.67 29.827-3.066 44.494.58 1.831 2.073 4.402 4.112 4.976 2.02.575 2.112-1.614 1.681-2.985-2.713-8.642-2.962-17.747-1.187-26.455-.052.252-.114.497-.08.82.22 2.054 1.742 4.491 3.545 5.589 8.176 4.957 20.32 2.8 24.45-6.246.08-.174.099-.364.172-.54.026.204.022.404.055.61 1.095 6.744 6.04 13.691 12.894 15.695 5.655 1.653 11.58-1.16 15.213-5.407-.058.172-.173.27-.178.507-.045 2.054 2.09 4.217 3.665 5.282 4.109 2.795 9.516 6.112 14.645 3.975 5.704-2.367 4.696-8.504 1.886-12.843-1.42-2.194-3.465-3.796-5.002-5.87-1.171-1.569-1.257-3.827-.868-5.671.989-4.683 5.248-7.739 9.988-7.962 2.048-.096.376-3.484-.118-4.211-1.072-1.576-2.922-3.375-5.002-3.273zm-72.678 18.744c-1.144-.695-2.106-.472-2.492.38 1.561-7.365 4.543-14.442 8.92-20.655 3.343-.153 6.664.185 9.634 1.64 1.005.49 1.927 1.116 2.692 1.933.045.05.702 1.033.66.957.852 1.588 1.235 3.63 1.101 5.595-.654 9.276-12.396 15.076-20.515 10.15zm115.2-35.166c.122-.74-.255-1.614-.899-2.463 6.559-.88 13.251-.797 19.803.357 2.182.383 2.859-.823 1.863-2.75-1.078-2.08-3.285-3.661-5.595-4.063-13.34-2.342-27.268-.74-39.715 4.549-3.075 1.307 3.203 7.936 5.965 6.762a70.39 70.39 0 0 1 10.476-3.483c-2.233 17.5-.587 35.185 4.613 52.073.606 1.959 3.05 3.828 4.982 4.358 1.972.536 2.63-.606 2.106-2.316-5.29-17.118-6.431-35.37-3.598-53.024zm137.298 10.195c-1.078 4.173-5.162 8.109-9.762 7.937-1.448-.058-2.38-.549-3.63-1.646-1.773-1.557-3.03-3.682-3.694-5.927-.019-.058-.032-.115-.044-.166 1.658.746 3.56 1.104 4.574.574 6.323-3.33 13.953-7.828 13.066-16-.893-8.212-12.09-11.938-18.948-8.365-6.594 3.447-9.013 12.37-8.08 19.277-.798-.795-1.877-1.45-2.428-1.681-8.281-3.51-17.354-1.595-22.732 5.882-2.552 3.554-3.834 7.612-4.434 11.816-.964-1.889-1.927-3.777-2.89-5.672-.964-1.888-3.369-3.113-5.417-3.451-1.276-.217-3.84.076-2.864 1.99l2.143 4.212c-.672-1.047-1.865-2.025-2.469-2.362-7.822-4.44-17.06-3.598-23.261 3.203-2.941 3.228-4.677 7.101-5.761 11.21-.74-1.99-1.48-3.975-2.214-5.966-.747-1.984-2.999-3.47-4.996-4.05-.63-.186-1.598-.273-2.309-.055-2.6-4.91-8.934-8.245-14.38-7.315-7.644 1.289-12.856 9.666-13.813 16.716-1.085 8.032 3.317 15.586 10.06 19.918 6.642 4.262 16.748 4.492 21.406-2.813 1.722-2.718-5.838-8.18-7.408-5.71-2.31 3.636-7.407 6.13-11.732 4.548-1.36-.504-2.087-1.263-2.935-2.686-1.212-2.022-1.755-4.44-1.69-6.775 0-.064.006-.121.012-.172 1.346 1.218 3.043 2.15 4.172 1.958 7.016-1.215 15.621-3.146 17.344-11.142 2.218 5.969 4.437 11.935 6.658 17.905.676 1.825 2.673 3.21 4.453 3.854 1.034.376 3.58 1.04 3.72-.747.574-7.33 1.174-15.006 5.455-21.315 1.83-2.7 4.217-4.945 7.26-6.24 2.06-.88 5.678-1.678 7.541-.619 1.168.657 4.07 2.201 5.174.625.241-.345.238-.737.14-1.134l8.435 16.574c.887 1.735 3.03 2.884 4.868 3.317 1.072.256 3.675.62 3.605-1.18-.268-7.35-.555-15.044 2.973-21.82 1.505-2.896 3.617-5.397 6.495-7.05 1.939-1.11 5.448-2.328 7.413-1.492 1.156.488 3.84 1.474 4.941.234 1.994 7.128 8.085 12.325 15.29 14.223 7.637 2.016 17.328-.88 19.504-9.277.803-3.107-8.084-5.978-8.811-3.145zM337.38 740.21c-1.359 5.684-7.503 7.547-12.76 8.562 1.142-3.586 3.324-6.897 6.24-9.264a11.27 11.27 0 0 1 3.464-1.933c1.11-.383 2.055-.255 3.14-.274a6.895 6.895 0 0 1-.084 2.909zm98.233-28.474a11.362 11.362 0 0 1 2.699-2.91c.944-.701 1.875-.873 2.909-1.23.478.893.74 1.78.817 2.807.465 5.812-4.805 9.474-9.5 12.07-.013-3.764 1.04-7.585 3.075-10.737zm53.547-5.487c-.561 4.275-4.134 8.683-8.721 9.066-1.442.121-2.431-.268-3.803-1.2-1.946-1.333-3.458-3.291-4.383-5.441a1.986 1.986 0 0 1-.057-.153c1.735.535 3.662.663 4.606.006 5.87-4.064 12.9-9.442 11.031-17.456-1.876-8.039-13.436-10.393-19.81-6.01-6.386 4.39-7.592 14.177-5.487 20.971 2.4 7.752 9.583 12.748 17.52 13.851 7.815 1.072 17.086-2.98 18.228-11.573.427-3.184-8.735-4.957-9.124-2.06zm-16.518-13.653a11.542 11.542 0 0 1 2.335-3.209c.849-.81 1.755-1.097 2.731-1.57.58.817.95 1.672 1.155 2.68 1.155 5.717-3.624 9.985-7.969 13.13-.478-3.732.109-7.656 1.748-11.03zm15.255-20.167a50.255 50.255 0 0 0 11.465-6.144c3.343-2.405-5.257-5.13-7.586-3.458a46.766 46.766 0 0 1-5.94 3.643 69.39 69.39 0 0 1-1.767-7.554c-.491-2.826-9.71-3.668-9.11-.249a67.793 67.793 0 0 0 2.883 10.98 43.197 43.197 0 0 1-9.085 1.583c-1.474.089-3.413 1.142-2.188 2.711 1.295 1.652 4.274 1.901 6.182 1.78a51.46 51.46 0 0 0 7.12-.957c5.168 11.663 13.48 21.852 23.95 29.342 1.717 1.225 4.492 1.652 6.533 1.033 1.812-.555 2.074-1.99.543-3.075-10.419-7.458-18.324-17.858-23-29.635zm44.472-48.98c1.546.282 3.092.564 4.641.85 1.959.357 4.779.318 6.355-1.168 1.524-1.442-.428-2.673-1.8-2.929-2.832-.516-5.665-1.033-8.504-1.556a11.785 11.785 0 0 0-1.99-.162c-.125-.57-.323-1.117-.44-1.689-.677-3.247-9.896-2.711-9.354-.089 3.203 15.478 8.836 30.286 16.754 43.824-11.829-6.341-23.657-12.677-35.48-19.018-1.843-.99-4.708-.97-6.609-.064-1.742.823-1.729 2.24-.09 3.126 16.493 8.843 32.992 17.685 49.49 26.534 1.576.842 3.93.868 5.653.402.861-.236 3.094-1.218 2.214-2.482-9.62-13.776-16.61-29.261-20.84-45.58zm38.468 24.806c-8.422-3.77-15.325-10.087-20.059-17.979-1.531-2.558-10.623-1.071-8.957 1.697 5.282 8.805 13.18 15.606 22.54 19.791 1.914.862 4.76.65 6.603-.389 1.678-.938 1.576-2.36-.127-3.12zm18.833-23.918c-.65-3.158-9.889-1.806-9.295 1.059.874 4.223-1.047 9.563-5.251 11.445-1.32.594-2.38.55-3.981.122-2.278-.613-4.345-1.972-5.927-3.688l-.109-.128c1.819-.063 3.682-.58 4.358-1.512 4.204-5.78 9.06-13.187 4.657-20.129-4.427-6.98-16.11-5.378-20.677.862-4.581 6.265-2.495 15.892 1.729 21.622 4.823 6.52 13.245 8.868 21.098 7.286 7.733-1.57 15.14-8.454 13.398-16.94zm-29.386-6.374c.16-1.314.549-2.616 1.149-3.802.536-1.047 1.295-1.615 2.06-2.387a6.728 6.728 0 0 1 1.965 2.144c2.986 5.021-.12 10.636-3.19 15.031-1.678-3.362-2.418-7.254-1.984-10.986z" fill="#0090d4"/><path d="M435.105 105.698C274.129 182.854 81.337 496.378 52.853 543.677a284.415 284.415 0 0 1-15.614-25.218c118.053-125.11 101.132-116.681 108.188-182.47 5.684-53.114-40.505-131.707-64.025-167.77 54.682-58.21 132.361-94.6 218.598-94.6 48.606 0 94.534 11.565 135.105 32.079z" fill="#eb6e1d"/><path d="M600 373.62c0 96.886-45.927 182.992-117.204 237.87-241.267-83.1-333.384-23.584-360.627 3.724-6.01-4.442-11.89-9.08-17.574-13.98 136.738-63.633 403.158-217.161 492.53-269.165A300.516 300.516 0 0 1 600 373.62z" fill="#622a27"/><path d="M597.125 332.07c-89.372 52.003-355.792 205.531-492.53 269.163a298.994 298.994 0 0 1-51.742-57.556c28.484-47.3 221.276-360.823 382.252-437.98 86.04 43.51 148.301 127.2 162.02 226.372z" fill="#b80718"/><path d="M155.318 580.486l.006-.006c75.054-9.232 117.95-32.251 127.517-68.445.641-2.43 1.139-5.142 1.522-8.287 10.039-85.275-5.391-112.46-46.17-144.584-2.07-1.635-3.963-3.273-5.842-4.913a5357.398 5357.398 0 0 0-2.598-40.168c-.558-8.182-1.142-16.339-1.726-24.234v-.316c12.14-1.313 21.654-11.502 21.654-23.985 0-13.37-10.875-24.247-24.244-24.247-13.37 0-24.247 10.877-24.247 24.247 0 12.02 8.817 21.952 20.31 23.848l.004.702c.593 8.112 1.17 16.256 1.729 24.432.762 11.088 1.456 22.087 2.142 33.077-5.026-4.946-9.785-10.098-13.92-15.628-2.01-2.625-3.93-5.397-6.038-8.712-8.256-13.06-11.328-23.382-12.192-26.63l-.369-.642c3.702-3.198 6.098-7.868 6.098-13.132 0-9.608-7.819-17.427-17.427-17.427s-17.427 7.819-17.427 17.427 7.819 17.427 17.427 17.427c1.99 0 3.873-.406 5.656-1.023 1.18 4.323 4.557 14.59 12.718 27.497 2.214 3.486 4.24 6.408 6.345 9.158 6.007 8.032 13 15.567 20.777 22.381 2.261 1.997 4.593 3.994 7.126 5.99 37.358 29.425 53.847 52.7 43.725 138.676-.338 2.801-.794 5.29-1.35 7.401-8.864 33.533-50.312 54.99-123.19 63.774l-1.2.204c-25.041 2.91-48.5 3.765-68.195 4.218l.153 6.533c20.145-.466 44.213-1.353 69.95-4.402l1.276-.211zm26.209-286.73c-6.007 0-10.894-4.886-10.894-10.893 0-6.007 4.887-10.894 10.894-10.894 6.007 0 10.894 4.887 10.894 10.894 0 6.007-4.887 10.894-10.894 10.894zm43.91-10.494c-9.768 0-17.714-7.947-17.714-17.714 0-9.768 7.946-17.714 17.714-17.714 9.765 0 17.711 7.946 17.711 17.714 0 9.767-7.946 17.714-17.71 17.714zm68.808 4.008a13.37 13.37 0 0 0 2.597.263c7.382 0 13.385-6.003 13.385-13.382 0-3.54-1.407-6.742-3.66-9.138 1.524.605 3.174.962 4.91.962 7.376 0 13.38-6.003 13.38-13.382 0-3.458-1.354-6.584-3.515-8.962 1.168.334 2.375.57 3.648.57 7.376 0 13.38-6.004 13.38-13.383 0-7.378-6.004-13.382-13.38-13.382-5.37 0-9.977 3.196-12.108 7.768-1.528-5.709-6.696-9.947-12.882-9.947-4.429 0-8.332 2.188-10.77 5.514-2.38-3.718-6.522-6.203-11.254-6.203-7.378 0-13.382 6.004-13.382 13.382 0 6.709 4.98 12.228 11.426 13.185-2.727 2.451-4.478 5.967-4.478 9.914 0 7.382 6.004 13.385 13.382 13.385 1.164 0 2.273-.196 3.35-.476-2.917 2.457-4.814 6.09-4.814 10.193 0 4.017 1.816 7.583 4.627 10.038-.752 4.19-.849 10.103-.857 10.847-.01.338-.921 34.107.004 58.552.947 25.067 9.503 41.815 9.866 42.516l5.8-3.004c-.08-.16-8.25-16.238-9.14-39.754-.915-24.235-.006-57.793.004-58.186.023-2.103.183-5.291.48-7.89zm30.745-63.3c3.777 0 6.846 3.071 6.846 6.848 0 3.777-3.069 6.85-6.846 6.85s-6.852-3.073-6.852-6.85c0-3.777 3.075-6.849 6.852-6.849zm-6.667 28.623c0 3.777-3.068 6.849-6.845 6.849s-6.853-3.072-6.853-6.849 3.076-6.849 6.853-6.849 6.845 3.072 6.845 6.85zm-6.215-18.34c.56 2.09 1.597 3.97 3.011 5.526-1.165-.333-2.371-.568-3.641-.568-1.65 0-3.212.34-4.673.888a13.402 13.402 0 0 0 5.303-5.845zM300 221.792c3.777 0 6.852 3.072 6.852 6.848s-3.075 6.85-6.852 6.85-6.849-3.073-6.849-6.85 3.072-6.848 6.849-6.848zm-11.254 14.028c2.38 3.718 6.522 6.202 11.254 6.202 1.65 0 3.212-.34 4.672-.887a13.324 13.324 0 0 0-6.393 9.615c-.15-6.57-5.047-11.942-11.398-12.884a13.423 13.423 0 0 0 1.865-2.046zm13.007 25.912a13.278 13.278 0 0 0-4.911-.962c-1.163 0-2.272.196-3.348.476a13.291 13.291 0 0 0 4.629-8.35 13.292 13.292 0 0 0 3.63 8.836zm-30.626-33.78c0-3.778 3.072-6.85 6.85-6.85s6.848 3.072 6.848 6.85-3.072 6.848-6.849 6.848-6.849-3.072-6.849-6.849zm13.797 29.95c-3.777 0-6.849-3.075-6.849-6.852s3.072-6.849 6.85-6.849 6.851 3.072 6.851 6.85-3.075 6.851-6.852 6.851zm5.069 16.25c0-3.777 3.072-6.849 6.849-6.849s6.852 3.072 6.852 6.85-3.075 6.848-6.852 6.848-6.849-3.072-6.849-6.849zm-100.954 96.53c-7.378 0-13.382 6.003-13.382 13.378 0 7.382 6.004 13.385 13.382 13.385s13.382-6.003 13.382-13.385c0-7.375-6.003-13.379-13.382-13.379zm0 20.23c-3.777 0-6.849-3.075-6.849-6.852s3.072-6.846 6.85-6.846 6.848 3.07 6.848 6.846-3.072 6.852-6.849 6.852zm206.954-23.606c0 7.382 6.004 13.385 13.38 13.385 7.38 0 13.384-6.003 13.384-13.385 0-7.375-6.003-13.379-13.385-13.379-7.375 0-13.379 6.004-13.379 13.38zm20.231 0c0 3.777-3.075 6.852-6.852 6.852s-6.846-3.075-6.846-6.852 3.07-6.845 6.846-6.845 6.852 3.068 6.852 6.845zm-26.764-45.731c0 7.381 6.004 13.385 13.379 13.385 7.382 0 13.385-6.004 13.385-13.385 0-7.379-6.003-13.383-13.385-13.383-7.375 0-13.379 6.004-13.379 13.383zm20.231 0c0 3.776-3.075 6.852-6.852 6.852s-6.846-3.076-6.846-6.852 3.069-6.85 6.846-6.85 6.852 3.073 6.852 6.85zm28.046 35.912c7.382 0 13.386-6.003 13.386-13.385 0-7.375-6.004-13.379-13.386-13.379-7.375 0-13.378 6.004-13.378 13.38 0 7.38 6.003 13.384 13.378 13.384zm0-20.23c3.777 0 6.853 3.068 6.853 6.845 0 3.777-3.076 6.852-6.853 6.852-3.776 0-6.845-3.075-6.845-6.852a6.85 6.85 0 0 1 6.845-6.845zm-39.658-83.499c-7.381 0-13.385 6.004-13.385 13.382s6.004 13.383 13.385 13.383c7.376 0 13.38-6.004 13.38-13.383s-6.004-13.382-13.38-13.382zm0 20.231c-3.776 0-6.852-3.072-6.852-6.849s3.076-6.848 6.852-6.848 6.846 3.072 6.846 6.848-3.069 6.85-6.846 6.85zm0-33.9c-14.916 0-27.05 12.135-27.05 27.051 0 6.993 2.737 13.313 7.108 18.12-31.8 27.456-55.278 105.07-56.28 108.402l6.266 1.876c.235-.807 24.266-80.302 54.95-105.917a26.885 26.885 0 0 0 15.006 4.567c14.91 0 27.045-12.134 27.045-27.048 0-14.916-12.134-27.05-27.045-27.05zm0 47.566c-11.311 0-20.518-9.203-20.518-20.515 0-11.314 9.207-20.518 20.518-20.518s20.512 9.204 20.512 20.518c0 11.312-9.2 20.515-20.512 20.515zm1.94-79.261c4.62 0 8.377-3.758 8.377-8.374 0-4.62-3.758-8.377-8.377-8.377s-8.377 3.758-8.377 8.377c0 4.616 3.758 8.374 8.377 8.374zm0-10.218c1.014 0 1.844.826 1.844 1.844 0 1.014-.83 1.84-1.844 1.84a1.846 1.846 0 0 1-1.844-1.84c0-1.018.83-1.844 1.844-1.844zm-71.526-25.794c0 11.717 8.53 21.426 19.695 23.385-.023 2.038-.292 4.138-.542 5.302-3.32 7.497-3.592 27.36-.853 58.922-1.131 1.082-2.214 2.128-3.41 3.255-37.319 35.172-34.464 127.558-34.323 131.469l6.533-.23c-.039-.932-2.916-93.32 32.27-126.486 35.035-33.018 43.096-47.087 43.998-48.778a20.75 20.75 0 0 0 8.158 1.665c11.503 0 20.863-9.36 20.863-20.866s-9.36-20.87-20.863-20.87c-11.51 0-20.869 9.364-20.869 20.87 0 7.049 3.534 13.265 8.901 17.044l-1.928-.97c-.057.121-6.004 11.257-33.25 38.012-2.061-26.314-1.814-44.616.93-50.944.133-.544.852-3.695.919-7.225 11.972-1.235 21.378-11.262 21.378-23.555 0-13.127-10.68-23.804-23.803-23.804s-23.804 10.677-23.804 23.804zm57.19 27.638c0-7.905 6.431-14.336 14.336-14.336 7.898 0 14.33 6.431 14.33 14.336 0 7.901-6.432 14.333-14.33 14.333-7.905 0-14.336-6.432-14.336-14.333zm-16.116-27.638c0 9.017-6.97 16.357-15.796 17.118-.059-.15-.089-.318-.154-.463l-1.365.608c-9.504-.025-17.226-7.756-17.226-17.263 0-9.522 7.745-17.27 17.27-17.27 9.526 0 17.271 7.748 17.271 17.27zm-29.43 0c0 5.174 5.34 9.225 12.16 9.225s12.16-4.051 12.16-9.225-5.34-9.229-12.16-9.229-12.16 4.055-12.16 9.229zm17.787 0c0 1.072-2.246 2.692-5.627 2.692-3.382 0-5.627-1.62-5.627-2.692s2.245-2.696 5.627-2.696c3.381 0 5.627 1.624 5.627 2.696zm-77.84 10.527c0 7.378 6.004 13.382 13.383 13.382s13.385-6.004 13.385-13.382-6.007-13.382-13.385-13.382-13.382 6.003-13.382 13.382zm20.232 0c0 3.777-3.072 6.849-6.85 6.849s-6.848-3.072-6.848-6.85 3.072-6.848 6.849-6.848 6.849 3.072 6.849 6.849zm12.75-32.35c7.382 0 13.385-6.004 13.385-13.382s-6.003-13.382-13.385-13.382c-7.378 0-13.382 6.004-13.382 13.382s6.004 13.382 13.382 13.382zm0-20.23c3.777 0 6.852 3.071 6.852 6.848 0 3.777-3.075 6.849-6.852 6.849a6.856 6.856 0 0 1-6.849-6.849 6.856 6.856 0 0 1 6.85-6.849zm-45.732 7.164c7.379 0 13.382-6.004 13.382-13.382 0-7.379-6.003-13.382-13.382-13.382s-13.382 6.003-13.382 13.382c0 7.378 6.004 13.382 13.382 13.382zm0-20.231a6.856 6.856 0 0 1 6.85 6.849c0 3.777-3.073 6.849-6.85 6.849s-6.848-3.072-6.848-6.85a6.856 6.856 0 0 1 6.848-6.848zm26.133.632c7.378 0 13.385-6.004 13.385-13.382 0-7.379-6.007-13.382-13.385-13.382s-13.382 6.003-13.382 13.382c0 7.378 6.003 13.382 13.382 13.382zm0-20.231a6.856 6.856 0 0 1 6.849 6.849c0 3.776-3.072 6.848-6.85 6.848s-6.848-3.072-6.848-6.848a6.856 6.856 0 0 1 6.849-6.85zm32.665 7.164c7.382 0 13.386-6.003 13.386-13.382 0-7.378-6.004-13.382-13.386-13.382s-13.385 6.004-13.385 13.382c0 7.379 6.004 13.382 13.385 13.382zm0-20.23c3.777 0 6.853 3.071 6.853 6.848 0 3.777-3.076 6.85-6.853 6.85s-6.852-3.073-6.852-6.85c0-3.777 3.075-6.849 6.852-6.849zm26.133 28.744c4.868 0 8.83-3.962 8.83-8.83 0-4.87-3.962-8.833-8.83-8.833s-8.83 3.962-8.83 8.834c0 4.867 3.962 8.83 8.83 8.83zm0-11.13a2.298 2.298 0 0 1 0 4.597 2.298 2.298 0 1 1 0-4.597zm-133.696 97.975c3.937 0 7.604-1.03 10.897-2.698l-.437.414c14.463 15.267 31.157 64.53 31.98 110.804.848 47.423 19.315 85.722 20.1 87.33l5.87-2.872c-.186-.382-18.614-38.586-19.437-84.573-.853-47.832-17.692-97.277-33.134-114.426 5.141-4.459 8.466-10.957 8.466-18.28 0-13.402-10.904-24.305-24.305-24.305s-24.301 10.903-24.301 24.304 10.9 24.302 24.301 24.302zm0-42.073c9.8 0 17.772 7.972 17.772 17.771 0 9.797-7.972 17.769-17.772 17.769-9.796 0-17.768-7.972-17.768-17.769 0-9.8 7.972-17.771 17.768-17.771zm0 27.144c5.171 0 9.375-4.205 9.375-9.373 0-5.17-4.204-9.375-9.375-9.375-5.168 0-9.372 4.204-9.372 9.375 0 5.168 4.204 9.373 9.372 9.373zm0-12.215c1.566 0 2.842 1.276 2.842 2.842s-1.276 2.84-2.842 2.84a2.841 2.841 0 0 1 0-5.682zm-15.707 47.662c0 7.123 5.796 12.92 12.919 12.92 7.126 0 12.923-5.797 12.923-12.92s-5.797-12.92-12.923-12.92c-7.123 0-12.92 5.797-12.92 12.92zm19.309 0c0 3.522-2.868 6.386-6.39 6.386a6.393 6.393 0 0 1-6.386-6.386 6.393 6.393 0 0 1 6.386-6.387c3.522 0 6.39 2.865 6.39 6.387zm-32.522 32.519c7.126 0 12.922-5.797 12.922-12.92s-5.796-12.92-12.922-12.92c-7.124 0-12.92 5.797-12.92 12.92s5.796 12.92 12.92 12.92zm0-19.306c3.521 0 6.39 2.864 6.39 6.386 0 3.522-2.869 6.386-6.39 6.386a6.393 6.393 0 0 1-6.387-6.386 6.393 6.393 0 0 1 6.387-6.386zm35.788 18.712c-7.126 0-12.923 5.796-12.923 12.92 0 7.123 5.797 12.92 12.923 12.92 7.123 0 12.92-5.797 12.92-12.92 0-7.124-5.797-12.92-12.92-12.92zm0 19.306c-3.522 0-6.39-2.865-6.39-6.386 0-3.522 2.868-6.387 6.39-6.387a6.393 6.393 0 0 1 6.386 6.387 6.393 6.393 0 0 1-6.386 6.386zm-43.91 2.676c-4.549 0-8.25 3.704-8.25 8.253 0 4.549 3.701 8.25 8.25 8.25 4.549 0 8.252-3.701 8.252-8.25 0-4.549-3.703-8.253-8.252-8.253zm-1.716 8.253c0-.947.768-1.72 1.716-1.72.947 0 1.72.773 1.72 1.72 0 1.895-3.436 1.895-3.436 0zm-42.233 67.976c18.228 0 33.055-14.828 33.055-33.055 0-18.228-14.827-33.055-33.055-33.055s-33.054 14.827-33.054 33.055c0 18.227 14.827 33.055 33.054 33.055zm0-59.577c14.623 0 26.522 11.899 26.522 26.522s-11.899 26.521-26.522 26.521-26.521-11.898-26.521-26.521 11.898-26.522 26.521-26.522zm0 45.413c10.416 0 18.891-8.476 18.891-18.891 0-10.416-8.475-18.891-18.89-18.891s-18.889 8.475-18.889 18.89c0 10.416 8.473 18.892 18.888 18.892zm0-31.25c6.814 0 12.358 5.545 12.358 12.359s-5.544 12.358-12.358 12.358-12.354-5.544-12.354-12.358c0-6.814 5.54-12.358 12.354-12.358zm0 21.83c5.226 0 9.475-4.25 9.475-9.471 0-5.225-4.25-9.474-9.475-9.474-5.222 0-9.47 4.249-9.47 9.474 0 5.222 4.248 9.47 9.47 9.47zm0-12.412c1.62 0 2.942 1.32 2.942 2.94s-1.321 2.939-2.942 2.939a2.94 2.94 0 0 1 0-5.88zm46.613 18.291c-6.508 0-11.8 5.29-11.8 11.797 0 6.507 5.292 11.803 11.8 11.803s11.8-5.296 11.8-11.803c0-6.508-5.293-11.797-11.8-11.797zm0 17.067c-2.903 0-5.267-2.367-5.267-5.27s2.364-5.264 5.267-5.264 5.266 2.36 5.266 5.264-2.364 5.27-5.266 5.27zm-27.157 27.012c6.508 0 11.8-5.295 11.8-11.803 0-6.507-5.292-11.796-11.8-11.796s-11.8 5.289-11.8 11.796c0 6.508 5.293 11.803 11.8 11.803zm0-17.066c2.903 0 5.267 2.36 5.267 5.263s-2.364 5.27-5.267 5.27-5.267-2.367-5.267-5.27 2.364-5.263 5.267-5.263zm-24.748 177.982c-7.378 0-13.382 6.004-13.382 13.38 0 7.38 6.004 13.384 13.382 13.384 7.379 0 13.382-6.003 13.382-13.385 0-7.375-6.003-13.379-13.382-13.379zm0 20.231c-3.777 0-6.849-3.075-6.849-6.852s3.072-6.846 6.85-6.846c3.776 0 6.848 3.07 6.848 6.846 0 3.777-3.072 6.852-6.849 6.852zm27.73-12.281c-7.378 0-13.381 6.003-13.381 13.385 0 7.375 6.003 13.379 13.382 13.379s13.382-6.004 13.382-13.379c0-7.382-6.004-13.385-13.382-13.385zm0 20.23c-3.776 0-6.848-3.068-6.848-6.845 0-3.777 3.072-6.852 6.849-6.852s6.849 3.075 6.849 6.852-3.072 6.846-6.85 6.846zm26.009-29.468c-7.379 0-13.382 6.003-13.382 13.385 0 7.375 6.003 13.379 13.382 13.379s13.382-6.004 13.382-13.38c0-7.38-6.004-13.384-13.382-13.384zm0 20.23c-3.777 0-6.85-3.068-6.85-6.845 0-3.777 3.073-6.852 6.85-6.852s6.849 3.075 6.849 6.852-3.072 6.845-6.85 6.845zm27.389 3.548c7.378 0 13.382-6.004 13.382-13.385 0-7.376-6.004-13.38-13.382-13.38s-13.382 6.004-13.382 13.38c0 7.381 6.004 13.385 13.382 13.385zm0-20.231c3.777 0 6.849 3.069 6.849 6.846 0 3.776-3.072 6.852-6.849 6.852s-6.849-3.076-6.849-6.852c0-3.777 3.072-6.846 6.849-6.846zm92.334 35.473c0-7.382-6.003-13.386-13.382-13.386-7.378 0-13.382 6.004-13.382 13.386s6.004 13.385 13.382 13.385c7.379 0 13.382-6.004 13.382-13.385zm-13.382 6.852c-3.777 0-6.849-3.075-6.849-6.852s3.072-6.853 6.85-6.853c3.776 0 6.848 3.076 6.848 6.853s-3.072 6.852-6.849 6.852zm-27.564 0c-7.379 0-13.382 6.003-13.382 13.378 0 7.382 6.003 13.386 13.382 13.386s13.382-6.004 13.382-13.386c0-7.375-6.004-13.378-13.382-13.378zm0 20.23c-3.777 0-6.85-3.075-6.85-6.852 0-3.776 3.073-6.845 6.85-6.845s6.849 3.069 6.849 6.845c0 3.777-3.072 6.853-6.85 6.853zm41.642-13.519c-7.379 0-13.382 6.004-13.382 13.386s6.003 13.385 13.382 13.385c7.375 0 13.379-6.004 13.379-13.385s-6.004-13.386-13.38-13.386zm0 20.238c-3.777 0-6.85-3.075-6.85-6.852s3.073-6.853 6.85-6.853 6.846 3.076 6.846 6.853c0 3.777-3.07 6.852-6.846 6.852zm25.756-51.825c-7.382 0-13.385 6.004-13.385 13.379 0 7.382 6.003 13.385 13.385 13.385 7.375 0 13.379-6.003 13.379-13.385 0-7.375-6.004-13.379-13.38-13.379zm0 20.231c-3.777 0-6.852-3.075-6.852-6.852s3.075-6.846 6.852-6.846 6.846 3.069 6.846 6.846-3.07 6.852-6.846 6.852zm248.085-111.93c0-14.221-11.573-25.795-25.794-25.795-14.227 0-25.8 11.574-25.8 25.795 0 7.41 3.184 14.052 8.203 18.762-18.464-1.14-36.209-1.432-53.147-.799 9.226-2.21 16.125-10.473 16.125-20.369 0-11.58-9.417-20.996-20.996-20.996s-20.997 9.417-20.997 20.996c0 10.72 8.1 19.484 18.483 20.743-42.974 2.3-80.82 10.442-113.126 24.432-20.427-18.082-39.9-48.212-20.924-91.047 28.417-64.17 46.81-65.401 64.597-66.594 2.342-.16 4.664-.313 6.967-.6l-.79-6.482c-2.19.268-4.39.415-6.61.562-18.809 1.263-40.124 2.692-70.136 70.473-20.735 46.797 2.194 79.614 20.407 96.644-26.427 12.379-43.753 26.612-53.883 36.885-22.48 3.621-44.513 9.716-65.5 18.187l-.66.242c-34.761 14.164-66.486 34.605-94.296 60.75l4.472 4.76c27.067-25.45 57.918-45.368 91.697-59.219l.65-.242c21.038-8.543 43.151-14.674 65.717-18.222 64.509-9.978 134.376.747 207.675 31.92l1.34.261-.032-3.337 1.244-2.935c-70.649-30.055-138.27-41.345-201.17-33.715 10.788-9.651 26.924-21.342 49.914-31.5 54.58-24.194 125.756-31.154 211.585-20.717l.792-6.482c-2.572-.313-5.088-.559-7.634-.84 6.992-4.62 11.627-12.53 11.627-21.521zm-115.873-2.406c0-7.975 6.489-14.463 14.464-14.463s14.463 6.488 14.463 14.463c0 7.975-6.488 14.464-14.463 14.464s-14.464-6.489-14.464-14.464zm90.08 21.673c-10.623 0-19.268-8.645-19.268-19.267s8.645-19.262 19.267-19.262c10.623 0 19.261 8.639 19.261 19.262s-8.638 19.267-19.26 19.267zm0-33.597c-7.9 0-14.33 6.431-14.33 14.33 0 7.904 6.43 14.335 14.33 14.335 7.898 0 14.329-6.43 14.329-14.335 0-7.899-6.431-14.33-14.33-14.33zm0 22.132c-4.301 0-7.797-3.502-7.797-7.802s3.496-7.797 7.796-7.797 7.797 3.496 7.797 7.797-3.497 7.802-7.797 7.802zm-40.207 6.533c7.898 0 14.329-6.43 14.329-14.335 0-7.899-6.431-14.33-14.33-14.33-7.904 0-14.335 6.431-14.335 14.33 0 7.904 6.43 14.335 14.336 14.335zm0-22.132c4.3 0 7.796 3.496 7.796 7.797s-3.496 7.802-7.796 7.802c-4.3 0-7.803-3.502-7.803-7.802s3.502-7.797 7.803-7.797zm-35.41-5.697c-6.111 0-11.088 4.976-11.088 11.088 0 6.119 4.977 11.095 11.089 11.095s11.088-4.976 11.088-11.095c0-6.112-4.976-11.088-11.088-11.088zm0 15.65a4.558 4.558 0 1 1 0-9.117 4.558 4.558 0 0 1 0 9.117z" fill="#b1c903"/></svg>